<svg xmlns="http://www.w3.org/2000/svg" width="164" height="37.111" viewBox="0 0 164 37.111">
    <defs>
        <style>
            .prefix__cls-2{fill:#fff}
        </style>
    </defs>
    <g id="prefix___02_Logo_Flightradar24_payoff" data-name="02_Logo_Flightradar24_payoff" transform="translate(-2.9 -2.4)">
        <g id="prefix__container" style="stroke:#707070;opacity:0;fill:#fff">
            <path d="M0 0H164V37H0z" style="stroke:none" transform="translate(2.9 2.4)"/>
            <path d="M0.5 0.5H163.5V36.5H0.5z" style="fill:none" transform="translate(2.9 2.4)"/>
        </g>
        <g id="prefix__Radar_xA0_Urklippsbana" transform="translate(2.917 2.4)">
            <g id="prefix__Group_6" data-name="Group 6">
                <path id="prefix__Path_5" d="M22.991 6.934a.554.554 0 1 0 .4.162.559.559 0 0 0-.4-.162zm-10.267 7.244a.559.559 0 1 0 .559.558.564.564 0 0 0-.559-.558zm-2.481 12.486a.559.559 0 1 0-.559-.559.544.544 0 0 0 .559.559zM18.359 2.4a15.34 15.34 0 1 0 10.87 4.479A15.352 15.352 0 0 0 18.359 2.4zm-5.241 21.717a8.141 8.141 0 0 1-2.48-8.838.533.533 0 0 0 .46.23.559.559 0 1 0 0-1.117.208.208 0 0 0-.1.016A8.131 8.131 0 1 1 21.6 25.35a.362.362 0 0 0 .016-.131.559.559 0 0 0-1.117 0 .6.6 0 0 0 .23.46 8.2 8.2 0 0 1-2.382.361 8.3 8.3 0 0 1-1.446-.131l.411-3.122a5.568 5.568 0 0 0 1.051.115 5 5 0 0 0 4.846-3.762.546.546 0 0 0 .46.246.559.559 0 0 0 0-1.117.592.592 0 0 0-.329.1 4.616 4.616 0 0 0 .016-.476 5.011 5.011 0 1 0-8.3 3.778zm1.082-6.226a4.134 4.134 0 1 1 3.236 4.041l.509-3.762a.533.533 0 0 0 .46.23.559.559 0 1 0-.559-.559.567.567 0 0 0 .082.3l-2.3 2.875a4.071 4.071 0 0 1-1.43-3.122zm4.173 12.945a14.956 14.956 0 0 1-2.119-.164l.526-3.926a9.884 9.884 0 0 0 1.577.131 9.023 9.023 0 1 0-5.783-2.086l-2.464 3.088a13 13 0 1 1 8.263 2.957z" class="prefix__cls-2" data-name="Path 5" transform="translate(-3.032 -2.4)"/>
            </g>
        </g>
        <g id="prefix__Flightradar_xA0_Urklippsbana" transform="translate(38.023 7.739)">
            <g id="prefix__Group_7" data-name="Group 7">
                <path id="prefix__Path_6" d="M233.243 36.526a1.361 1.361 0 0 0-1.036.427 1.52 1.52 0 0 0-.394 1.047 1.478 1.478 0 0 0 .427 1.051 1.4 1.4 0 0 0 1.068.427 1.478 1.478 0 0 0 1.051-.427 1.413 1.413 0 0 0 .427-1.051 1.384 1.384 0 0 0-.46-1.051 1.585 1.585 0 0 0-1.083-.423zm10.514 5.733a4.753 4.753 0 0 0-1.955-.443 4.122 4.122 0 0 0-1.511.279 3.761 3.761 0 0 0-1.232.789 3.642 3.642 0 0 0-.854 1.183 3.258 3.258 0 0 0-.329 1.429h-.033v7.228h.033a3.462 3.462 0 0 0 .312 1.478 3.6 3.6 0 0 0 .838 1.183 4.29 4.29 0 0 0 1.249.805 3.956 3.956 0 0 0 1.528.3 4.344 4.344 0 0 0 1.955-.476v3.023h-.033v.163a1.43 1.43 0 0 1-1.413 1.429 1.037 1.037 0 0 1-.526-.115v2.5a1.594 1.594 0 0 1 .279.016 1.593 1.593 0 0 0 .279.016 3.852 3.852 0 0 0 1.495-.3 3.977 3.977 0 0 0 1.248-.805 4.165 4.165 0 0 0 .871-1.183 3.8 3.8 0 0 0 .394-1.478V41.865h-2.612v.394zm-.279 10.366a1.019 1.019 0 0 1-.148.526 1.44 1.44 0 0 1-.411.427 2.223 2.223 0 0 1-.559.279 1.939 1.939 0 0 1-.591.1 1.409 1.409 0 0 1-.969-.378 1.242 1.242 0 0 1-.41-.936V45.43a1.245 1.245 0 0 1 .411-.953 1.326 1.326 0 0 1 .969-.394 1.635 1.635 0 0 1 .591.115 3 3 0 0 1 .559.3 1.692 1.692 0 0 1 .41.427.977.977 0 0 1 .148.526zm-11.6 3.976h2.71l.05-14.785h-2.71zm-9.052-21.7a4.1 4.1 0 0 0-1.544.3 4.174 4.174 0 0 0-1.281.821 4.708 4.708 0 0 0-.887 1.232 3.884 3.884 0 0 0-.394 1.512h-.033v3.724H216.7v2.349h1.988v11.73h2.694v-11.73h1.988V42.49h-1.988v-3.45h.033v-.2a1.4 1.4 0 0 1 .427-1.019 1.331 1.331 0 0 1 1-.427 1.277 1.277 0 0 1 .263.033 2.341 2.341 0 0 1 .263.082v-2.56l-.279-.049zm3.384 21.668h2.694V34.933h-2.694zm32.166-12.6a6.459 6.459 0 0 0-.674-.9 3.963 3.963 0 0 0-1.3-.821 4.206 4.206 0 0 0-1.577-.3 4.663 4.663 0 0 0-1.331.2 4.546 4.546 0 0 0-1.216.559v-7.77h-2.694v21.648h2.71v-10.3a1 1 0 0 1 .23-.591 2.622 2.622 0 0 1 .542-.493 2.532 2.532 0 0 1 .706-.329 2.166 2.166 0 0 1 .69-.115 1.739 1.739 0 0 1 .624.115 2.092 2.092 0 0 1 .591.329 1.52 1.52 0 0 1 .427.493 1.072 1.072 0 0 1 .164.591v10.3h2.776V46.449a4.059 4.059 0 0 0-.214-1.413 7.418 7.418 0 0 0-.46-1.068zm8.115-9.035H263.8v7.59h-1.988V44.9h1.988v7.869h.033a3.885 3.885 0 0 0 .394 1.511 4.709 4.709 0 0 0 .887 1.232 3.73 3.73 0 0 0 1.281.821 4.122 4.122 0 0 0 1.561.3 1.594 1.594 0 0 0 .279-.016 1.594 1.594 0 0 1 .279-.016v-2.579a2.338 2.338 0 0 1-.263.082 1.438 1.438 0 0 1-.263.033 1.413 1.413 0 0 1-1.036-.427 1.43 1.43 0 0 1-.427-1.019v-.2h-.033v-7.604h2.021v-2.365h-2.02v-7.59zm29.258 7.245a4.48 4.48 0 0 0-1.988-.476 4.062 4.062 0 0 0-1.561.3 4.174 4.174 0 0 0-1.281.821 4.3 4.3 0 0 0-.871 1.232 3.53 3.53 0 0 0-.329 1.478v7.393a3.753 3.753 0 0 0 .345 1.478 3.946 3.946 0 0 0 .871 1.2 3.691 3.691 0 0 0 1.281.805 4.1 4.1 0 0 0 1.544.3 4.48 4.48 0 0 0 1.988-.476v.361h2.71V34.949h-2.71zM295.5 53.02a.9.9 0 0 1-.164.526 1.511 1.511 0 0 1-.427.427 2.079 2.079 0 0 1-.575.279 2.041 2.041 0 0 1-.608.1 1.4 1.4 0 0 1-1-.394A1.26 1.26 0 0 1 292.3 53v-7.36a1.321 1.321 0 0 1 .427-.969 1.446 1.446 0 0 1 1-.411 1.719 1.719 0 0 1 .608.115 2.7 2.7 0 0 1 .575.3 1.758 1.758 0 0 1 .427.427.9.9 0 0 1 .164.526zm20.272-10.81v-.361h-2.743V56.6h2.743V45.151a1.347 1.347 0 0 1 .657-.739 2.059 2.059 0 0 1 1.019-.3 1.438 1.438 0 0 1 .329.033v-2.411a4.335 4.335 0 0 0-2 .476zm-8.427-.033a4.565 4.565 0 0 0-2.021-.476 4.1 4.1 0 0 0-1.544.3 3.882 3.882 0 0 0-2.119 2 3.752 3.752 0 0 0-.345 1.478v7.36a3.475 3.475 0 0 0 .329 1.478 4.017 4.017 0 0 0 .871 1.216 3.691 3.691 0 0 0 1.281.805 4.1 4.1 0 0 0 1.544.3 4.876 4.876 0 0 0 2.021-.444v.361h2.661V41.816h-2.661v.361zm-.275 10.563a.9.9 0 0 1-.164.526 1.51 1.51 0 0 1-.427.427 3.006 3.006 0 0 1-.559.3 1.573 1.573 0 0 1-.591.115 1.351 1.351 0 0 1-1-.411 1.3 1.3 0 0 1-.427-.969V45.4a1.261 1.261 0 0 1 .427-.953 1.43 1.43 0 0 1 1-.394 2.022 2.022 0 0 1 .591.1 2.223 2.223 0 0 1 .559.279 1.759 1.759 0 0 1 .427.427.9.9 0 0 1 .164.526zm-32.955-10.892h-2.743V56.6h2.743V45.151a1.347 1.347 0 0 1 .657-.739 2.059 2.059 0 0 1 1.019-.3 1.438 1.438 0 0 1 .329.033v-2.411a4.565 4.565 0 0 0-2.021.476v-.361zm10.333.329a4.565 4.565 0 0 0-2.021-.476 4.1 4.1 0 0 0-1.544.3 3.882 3.882 0 0 0-2.119 2 3.752 3.752 0 0 0-.345 1.478v7.36a3.475 3.475 0 0 0 .329 1.478 4.016 4.016 0 0 0 .871 1.216 3.691 3.691 0 0 0 1.281.805 4.1 4.1 0 0 0 1.544.3 4.876 4.876 0 0 0 2.021-.444v.361h2.661V41.816h-2.661v.361zm-.279 10.563a.9.9 0 0 1-.164.526 1.511 1.511 0 0 1-.427.427 3 3 0 0 1-.559.3 1.573 1.573 0 0 1-.591.115 1.351 1.351 0 0 1-1-.411 1.3 1.3 0 0 1-.427-.969V45.4a1.26 1.26 0 0 1 .427-.953 1.43 1.43 0 0 1 1-.394 2.022 2.022 0 0 1 .591.1 2.222 2.222 0 0 1 .559.279 1.759 1.759 0 0 1 .427.427.9.9 0 0 1 .164.526z" class="prefix__cls-2" data-name="Path 6" transform="translate(-216.7 -34.9)"/>
            </g>
        </g>
        <g id="prefix___x32_4_outline_xA0_Urklippsbana" transform="translate(141.042 12.7)">
            <g id="prefix__Group_8" data-name="Group 8">
                <path id="prefix__Path_7" d="M848.219 79.178l1.446-1.232c2.858-2.661 4.928-4.978 4.928-7.869 0-2.678-1.774-4.978-5.421-4.978a8.185 8.185 0 0 0-5.06 1.692l.9 2.2a6.036 6.036 0 0 1 3.516-1.364 2.6 2.6 0 0 1 2.94 2.76c-.033 2.168-1.84 4.156-5.717 7.738l-1.951 1.792v1.889h11.154v-2.579H848.2v-.049zm18.958-3.893v-9.923h-3.664l-6.7 10.251v2.021h7.442v4.173h2.94v-4.173h2.1v-2.35zm-2.94-4.468V75.3h-4.485l.033-.049 3.006-4.5c.509-.9.936-1.741 1.446-2.776h.1c-.066.937-.1 1.906-.1 2.843z" data-name="Path 7" transform="translate(-843.8 -65.099)" style="fill:#f8c024"/>
            </g>
        </g>
        <g id="prefix__Live_air_traffic_xA0_Urklippsbana" transform="translate(96.818 33.135)">
            <g id="prefix__Group_9" data-name="Group 9">
                <path id="prefix__Path_8" d="M596.153 189.638l-2.365 6.078h.821l.674-1.824h2.563l.657 1.824h.887l-2.367-6.078zm-.608 3.565l1.036-2.825h.016l1.019 2.825zm4.534 2.5h.805v-6.078h-.805zm-24.674-6.062h-.805v6.078h4.025v-.674h-3.219zm12.255 3.286h3.154v-.674h-3.154v-1.922h3.384v-.674h-4.189v6.078h4.222v-.674h-3.417zm-8.247 2.776h.805v-6.078h-.805zm4.156-.805h-.016l-1.741-5.257h-.871l2.136 6.078H584l2.152-6.078h-.838zM623 189.637l-2.366 6.078h.821l.674-1.824h2.563l.657 1.824h.887l-2.365-6.078zm-.591 3.565l1.036-2.825h.016l1.018 2.825zm14.374 2.5h.805v-6.078h-.805zm6.538-2.284a2.342 2.342 0 0 1-.148.69 1.771 1.771 0 0 1-.345.559 1.569 1.569 0 0 1-.542.361 1.932 1.932 0 0 1-.706.131 2.071 2.071 0 0 1-.936-.2 1.716 1.716 0 0 1-.641-.542 2.43 2.43 0 0 1-.378-.805 3.859 3.859 0 0 1-.115-.986 3.447 3.447 0 0 1 .115-.92 2.195 2.195 0 0 1 .378-.789 1.716 1.716 0 0 1 .641-.542 2.072 2.072 0 0 1 .936-.2 1.894 1.894 0 0 1 1.1.329 1.453 1.453 0 0 1 .591.969h.805a2.289 2.289 0 0 0-.3-.854 2.038 2.038 0 0 0-.559-.624 2.331 2.331 0 0 0-.756-.378 3.246 3.246 0 0 0-.9-.131 2.947 2.947 0 0 0-1.232.246 2.505 2.505 0 0 0-.9.69 2.762 2.762 0 0 0-.542 1.019 3.9 3.9 0 0 0-.181 1.249 4.414 4.414 0 0 0 .18 1.248 2.917 2.917 0 0 0 .526 1 2.533 2.533 0 0 0 .871.674 2.842 2.842 0 0 0 1.232.246 2.56 2.56 0 0 0 1.84-.641 2.794 2.794 0 0 0 .789-1.791h-.821zm-11.486 2.282h.805v-2.776h2.793v-.674h-2.793v-1.922h3.187v-.674h-3.992zm-4.928 0h.805v-2.776h2.788v-.674h-2.793v-1.922h3.193v-.674h-3.992zm-16.986-5.388h2.021v5.388h.805v-5.388h2.021v-.674h-4.848zm10.185 4.616l-.049-.444a4.024 4.024 0 0 0-.033-.444c-.016-.148-.049-.3-.066-.427a1.508 1.508 0 0 0-.148-.378.717.717 0 0 0-.263-.279 1.01 1.01 0 0 0-.427-.164v-.016a1.294 1.294 0 0 0 .805-.575 1.889 1.889 0 0 0 .246-.969 1.456 1.456 0 0 0-.494-1.166 2.022 2.022 0 0 0-1.364-.427h-2.858v6.078h.805v-2.6h1.971a1.242 1.242 0 0 1 .477.082 1.023 1.023 0 0 1 .3.23 1.117 1.117 0 0 1 .164.345 3.287 3.287 0 0 1 .082.427 2.039 2.039 0 0 1 .049.444c0 .148.016.3.016.427a2.465 2.465 0 0 0 .033.361.554.554 0 0 0 .115.263h.9a1.18 1.18 0 0 1-.2-.345 2.079 2.079 0 0 0-.065-.428zm-1.151-2.71a1.3 1.3 0 0 1-.443.164 2.771 2.771 0 0 1-.542.049h-1.675v-2.119h2a1.022 1.022 0 0 1 .821.3 1.14 1.14 0 0 1 .263.756 1.1 1.1 0 0 1-.115.542.945.945 0 0 1-.312.312zm-12.042 2.71l-.049-.444a4.024 4.024 0 0 0-.033-.444c-.016-.148-.049-.3-.066-.427a1.5 1.5 0 0 0-.148-.378.716.716 0 0 0-.263-.279 1.011 1.011 0 0 0-.427-.164v-.016a1.294 1.294 0 0 0 .805-.575 1.889 1.889 0 0 0 .246-.969 1.456 1.456 0 0 0-.493-1.166 2.023 2.023 0 0 0-1.364-.427h-2.858v6.078h.805v-2.6h1.971a1.242 1.242 0 0 1 .477.082 1.023 1.023 0 0 1 .3.23 1.12 1.12 0 0 1 .164.345 3.287 3.287 0 0 1 .082.427 2.039 2.039 0 0 1 .049.444c0 .148.016.3.016.427a2.465 2.465 0 0 0 .033.361.556.556 0 0 0 .115.263h.9a1.183 1.183 0 0 1-.2-.345 2.08 2.08 0 0 0-.067-.428zm-1.151-2.71a1.3 1.3 0 0 1-.444.164 2.769 2.769 0 0 1-.542.049H603.1v-2.119h2a1.022 1.022 0 0 1 .821.3 1.139 1.139 0 0 1 .263.756 1.1 1.1 0 0 1-.115.542.944.944 0 0 1-.312.312z" class="prefix__cls-2" data-name="Path 8" transform="translate(-574.6 -189.488)"/>
            </g>
        </g>
    </g>
</svg>